<svg width="1024" height="751" viewBox="0 0 1024 751" fill="none" xmlns="http://www.w3.org/2000/svg">
<rect y="339" width="1024" height="70" fill="white"/>
<path d="M817.907 375.5C817.907 206.829 681.171 70.0933 512.5 70.0933C343.829 70.0933 207.093 206.829 207.093 375.5C207.093 544.171 343.829 680.907 512.5 680.907V751C305.117 751 137 582.883 137 375.5C137 168.117 305.117 0 512.5 0C719.883 0 888 168.117 888 375.5C888 582.883 719.883 751 512.5 751V680.907C681.171 680.907 817.907 544.171 817.907 375.5Z" fill="white"/>
<path d="M381.855 168.775H641.841V87.7956C667.3 99.809 690.828 115.241 711.834 133.501V238.768H311.861V133.5C332.867 115.24 356.396 99.8082 381.855 87.7949V168.775Z" fill="white"/>
<path d="M512.735 493.873C598.473 493.873 674.054 537.359 718.626 603.477C700.38 619.221 680.31 632.908 658.777 644.181C627.232 597.178 573.596 566.243 512.735 566.243C451.874 566.243 398.238 597.178 366.693 644.182C345.16 632.909 325.091 619.221 306.845 603.478C351.417 537.359 426.998 493.873 512.735 493.873Z" fill="white"/>
</svg>
